<svg xmlns="http://www.w3.org/2000/svg" xmlns:xlink="http://www.w3.org/1999/xlink" viewBox="0,0,255.99504,255.99504" width="25px" height="25px" fill-rule="nonzero"><g fill="#ffffff" fill-rule="nonzero" stroke="none" stroke-width="1" stroke-linecap="butt" stroke-linejoin="miter" stroke-miterlimit="10" stroke-dasharray="" stroke-dashoffset="0" font-family="none" font-weight="none" font-size="none" text-anchor="none" style="mix-blend-mode: normal"><g transform="scale(5.33333,5.33333)"><path d="M47,10.948c-1.648,0.73 -3.421,1.217 -5.291,1.448c1.901,-1.129 3.364,-2.929 4.05,-5.056c-1.779,1.043 -3.75,1.809 -5.847,2.213c-1.674,-1.775 -4.063,-2.877 -6.709,-2.877c-5.083,0 -9.203,4.084 -9.203,9.119c0,0.713 0.083,1.407 0.24,2.081c-7.647,-0.384 -14.429,-4.019 -18.966,-9.536c-0.797,1.348 -1.246,2.926 -1.246,4.592c0,3.166 1.621,5.953 4.093,7.595c-1.509,-0.046 -2.929,-0.466 -4.172,-1.139c0,0.027 0,0.069 0,0.107c0,4.424 3.173,8.108 7.379,8.946c-0.768,0.212 -1.581,0.329 -2.418,0.329c-0.594,0 -1.174,-0.067 -1.734,-0.168c1.171,3.615 4.568,6.258 8.594,6.336c-3.15,2.442 -7.117,3.905 -11.43,3.905c-0.745,0 -1.474,-0.042 -2.194,-0.13c4.075,2.58 8.914,4.093 14.108,4.093c16.925,0 26.184,-13.898 26.184,-25.956c0,-0.395 -0.012,-0.789 -0.031,-1.177c1.806,-1.276 3.363,-2.886 4.593,-4.725z"></path></g></g></svg>